<?xml version="1.0" encoding="UTF-8"?>
<svg id="Layer_1" data-name="Layer 1" xmlns="http://www.w3.org/2000/svg" viewBox="0 0 767.34 764.88">
  <defs>
    <style>
      .cls-1 {
        fill-rule: evenodd;
      }
    </style>
  </defs>
  <path class="cls-1" d="M383.16,0c43.55,0,85.39,7.21,124.42,20.47,1.11,.38,1.85,1.42,1.85,2.59,0,0,0,81.7,0,81.7,0,2.02-2.08,3.36-3.93,2.54C309.42,18.08,76.61,168.69,79.42,385.11c0,107.75,56.22,202.37,140.95,256.21,0,0,0,0,0,0,0,0,0-334.62,0-334.62,0-1.62,1.31-2.94,2.94-2.94h71c1.61,0,2.92,1.31,2.92,2.92,0,0,0,80.05,0,80.05,0,1.64,1.33,2.97,2.97,2.97h99.04c1.53,0,2.75-1.24,2.75-2.77,2.62-109.69,86.34-109.75,89.02-.08,0,1.57,1.26,2.85,2.83,2.85h29.43c1.53,0,2.77-1.24,2.77-2.77V31.33c0-1.95,1.97-3.28,3.77-2.55,419.98,185.48,242.52,799.94-215.98,730.68,0,0,0,0,0,0v-78.88s0,0,0,0c291.11,66.03,492.3-280.38,293.91-499.78-1.71-1.88-4.85-.66-4.85,1.89V460.24c0,1.54-1.25,2.79-2.79,2.79,0,0-186.46,0-186.46,0-1.51,0-2.74,1.19-2.82,2.7-6.58,99.57-82.03,99.59-88.61,0-.08-1.51-1.31-2.7-2.82-2.7,0,0-19.45,0-19.45,0-1.5,0-2.71,1.21-2.71,2.71,0,0,0,290.35,0,290.35,0,0,0,0,0,0C-144.07,645.04-76.18,11.79,383.16,0Zm-16.36,486.67c-2.45,0-8.07-4.38-10.89-12.98-2.31-7.05-.44-9.87,5.98-10.66h0s9.81,0,9.81,0h0c6.42,.79,8.29,3.6,5.98,10.66-2.82,8.6-8.43,12.98-10.89,12.98h0Zm79.42-121.21c2.45,0,8.07,4.38,10.89,12.98,2.82,8.6-.59,10.91-10.89,10.91s-13.7-2.3-10.89-10.91,8.43-12.98,10.89-12.98Zm-2.74-141.69c13.55,0,24.43,11.4,23.58,25.14-3.12,30.28-46.12,28.86-47.21-1.51,0-13.05,10.58-23.63,23.63-23.63Zm-1.92-56.2c14.56-1.15,26.62,10.91,25.47,25.47-3.84,31.09-48.35,27.56-47.1-3.83,.9-11.45,10.18-20.73,21.63-21.63Z"/>
</svg>