<?xml version="1.0" encoding="UTF-8"?>
<!DOCTYPE svg PUBLIC "-//W3C//DTD SVG 1.1//EN" "http://www.w3.org/Graphics/SVG/1.1/DTD/svg11.dtd">
<!-- Creator: CorelDRAW -->
<svg xmlns="http://www.w3.org/2000/svg" xml:space="preserve" width="223.907mm" height="111.954mm" version="1.1" style="shape-rendering:geometricPrecision; text-rendering:geometricPrecision; image-rendering:optimizeQuality; fill-rule:evenodd; clip-rule:evenodd"
viewBox="0 0 22390.72 11195.36"
 xmlns:xlink="http://www.w3.org/1999/xlink"
 xmlns:xodm="http://www.corel.com/coreldraw/odm/2003">
 <defs>
  <style type="text/css">
   <![CDATA[
    .fil0 {fill:#2B2A29}
   ]]>
  </style>
 </defs>
 <g id="Layer_x0020_1">
  <metadata id="CorelCorpID_0Corel-Layer"/>
  <g id="_2032521491936">
   <g>
    <path class="fil0" d="M19137.68 2246.5l895.62 0c61.58,0 111.96,50.38 111.96,111.94l0 6493.34c0,61.56 -50.38,111.94 -111.96,111.94l-895.62 0c-61.58,0 -111.96,-50.38 -111.96,-111.94l0 -6493.34c0,-61.56 50.38,-111.94 111.96,-111.94zm-17912.58 -1119.53c-61.55,0 -111.95,50.4 -111.95,111.95l0 8732.38c0,61.57 50.38,111.95 111.95,111.95l19927.74 0c61.57,0 111.95,-50.38 111.95,-111.95l0 -8732.38c0,-61.57 -50.39,-111.95 -111.95,-111.95l-19927.74 0zm20935.32 -1119.54c123.15,0 223.91,100.77 223.91,223.91l0 10747.54c0,123.15 -100.76,223.91 -223.91,223.91l-21942.9 0c-123.15,0 -223.91,-100.76 -223.91,-223.91l0 -10747.54c0,-123.15 100.76,-223.91 223.91,-223.91l21942.9 0zm-14330.06 6518.07c0,-61.57 -50.42,-111.95 -111.95,-111.95l-2823.61 0c-61.53,0 -111.95,-50.38 -111.95,-111.95l0 -2823.61c0,-61.57 -50.42,-111.95 -111.95,-111.95l-1206.73 0c-61.55,0 -111.95,50.4 -111.95,111.95l0 5373.79c0,61.56 -50.38,111.94 -111.96,111.94l-895.62 0c-61.58,0 -111.96,-50.38 -111.96,-111.94l0 -6493.32 34.81 -80.96 77.15 -31 6493.3 0 80.96 34.81 31 77.15 0 5373.77c0,61.56 50.38,111.95 111.95,111.95l1610.95 0c61.57,0 111.95,-50.38 111.95,-111.95l0 -2823.61c0,-61.57 50.38,-111.95 111.95,-111.95l3943.14 0c61.58,0 111.96,50.45 111.96,111.95l0 2823.61c0,61.52 50.38,111.95 111.95,111.95l1610.95 0c61.57,0 111.95,-50.38 111.95,-111.95l0 -5373.79c0,-61.56 50.38,-111.94 111.95,-111.94l895.63 0c61.58,0 111.96,50.38 111.96,111.94l0 6493.32 -34.81 80.96 -77.15 31c-3283.97,0 -6567.95,0 -9851.91,0l-80.96 -34.81 -31 -77.15 0 -2326.26zm7009.48 -4279l-3943.14 0c-61.55,0 -111.95,50.4 -111.95,111.96l0 895.62c0,61.56 50.38,111.96 111.95,111.96l3943.14 0c61.58,0 111.96,-50.38 111.96,-111.96l0 -895.62c0,-61.58 -50.38,-111.96 -111.96,-111.96zm-7121.43 1119.54c61.57,0 111.95,50.39 111.95,111.94l0 1704.09c0,61.53 -50.42,111.94 -111.95,111.94l-1704.07 0c-61.53,0 -111.95,-50.36 -111.95,-111.94l0 -1704.09c0,-61.57 50.38,-111.94 111.95,-111.94l1704.07 0zm4297.83 2550.17l1704.07 0c61.57,0 111.95,50.43 111.95,111.94l0 1704.09c0,61.51 -50.44,111.94 -111.95,111.94l-1704.07 0c-61.51,0 -111.95,-50.37 -111.95,-111.94l0 -1704.09c0,-61.58 50.38,-111.94 111.95,-111.94z"/>
   </g>
   <rect class="fil0" x="2232.7" y="7844.18" width="3358.61" height="1119.54" rx="297.58" ry="111.95"/>
  </g>
 </g>
</svg>
