<?xml version="1.0" encoding="UTF-8"?>
<!DOCTYPE svg PUBLIC "-//W3C//DTD SVG 1.1//EN" "http://www.w3.org/Graphics/SVG/1.1/DTD/svg11.dtd">
<svg xmlns="http://www.w3.org/2000/svg" version="1.1" width="713px" height="512px" style="shape-rendering:geometricPrecision; text-rendering:geometricPrecision; image-rendering:optimizeQuality; fill-rule:evenodd; clip-rule:evenodd" xmlns:xlink="http://www.w3.org/1999/xlink">
<g><path style="opacity:0.891" fill="#000000" d="M 335.5,-0.5 C 349.167,-0.5 362.833,-0.5 376.5,-0.5C 376.5,170.167 376.5,340.833 376.5,511.5C 362.833,511.5 349.167,511.5 335.5,511.5C 335.5,340.833 335.5,170.167 335.5,-0.5 Z"/></g>
<g><path style="opacity:0.906" fill="#000000" d="M 226.5,89.5 C 239.833,89.5 253.167,89.5 266.5,89.5C 266.5,200.167 266.5,310.833 266.5,421.5C 253.167,421.5 239.833,421.5 226.5,421.5C 226.5,310.833 226.5,200.167 226.5,89.5 Z"/></g>
<g><path style="opacity:0.935" fill="#000000" d="M 555.5,89.5 C 568.5,89.5 581.5,89.5 594.5,89.5C 594.5,200.167 594.5,310.833 594.5,421.5C 581.5,421.5 568.5,421.5 555.5,421.5C 555.5,310.833 555.5,200.167 555.5,89.5 Z"/></g>
<g><path style="opacity:0.918" fill="#000000" d="M 119.5,161.5 C 130.838,161.333 142.172,161.5 153.5,162C 154.416,162.374 155.25,162.874 156,163.5C 156.667,224.833 156.667,286.167 156,347.5C 155.25,348.126 154.416,348.626 153.5,349C 141.787,349.812 130.12,349.645 118.5,348.5C 118.167,317.5 117.833,286.5 117.5,255.5C 117.507,223.954 118.174,192.62 119.5,161.5 Z"/></g>
<g><path style="opacity:0.89" fill="#000000" d="M 448.5,161.5 C 459.838,161.333 471.172,161.5 482.5,162C 483.416,162.374 484.25,162.874 485,163.5C 485.667,224.833 485.667,286.167 485,347.5C 484.25,348.126 483.416,348.626 482.5,349C 471.167,349.667 459.833,349.667 448.5,349C 447.584,348.626 446.75,348.126 446,347.5C 445.333,286.167 445.333,224.833 446,163.5C 446.995,162.934 447.828,162.267 448.5,161.5 Z"/></g>
</svg>
