<?xml version="1.0" encoding="utf-8"?>
<!-- Generator: Adobe Illustrator 27.0.0, SVG Export Plug-In . SVG Version: 6.00 Build 0)  -->
<svg version="1.1" id="Layer_1" xmlns="http://www.w3.org/2000/svg" xmlns:xlink="http://www.w3.org/1999/xlink" x="0px" y="0px"
	 viewBox="0 0 362.48 383.81" style="enable-background:new 0 0 362.48 383.81;" xml:space="preserve">
<path d="M339.24,53.26c-14.37-15.7-33.35-21.8-60.51-24.22V13.71C278.74,6.14,272.6,0,265.03,0c-7.57,0-13.71,6.14-13.71,13.71V27.7
	c-11.12-0.23-23.07-0.28-36.55-0.28h-67.02c-13.48,0-25.43,0.05-36.55,0.28V13.71C111.2,6.14,105.06,0,97.49,0
	S83.78,6.14,83.78,13.71v15.33c-27.16,2.42-46.14,8.52-60.54,24.22C0,78.6,0,114.94,0,187.34v36.55c0,72.39,0,108.7,23.24,134.04
	c23.7,25.88,59.51,25.88,124.51,25.88h67.02c65,0,100.81,0,124.47-25.88c23.24-25.34,23.24-61.65,23.24-134.04v-36.55
	C362.48,114.94,362.48,78.6,339.24,53.26z M147.75,54.83h67.02c63.11,0,89.35,0.64,104.27,16.96c8.97,9.79,12.84,24.64,14.58,47.01
	H28.87c1.74-22.37,5.61-37.23,14.58-47.01C58.4,55.47,84.62,54.83,147.75,54.83z M335.07,223.89c0,65.29,0,98.06-16.03,115.55
	c-14.92,16.31-41.16,16.96-104.27,16.96h-67.02c-63.13,0-89.35-0.64-104.31-16.96c-16.03-17.49-16.03-50.26-16.03-115.55v-36.55
	c0-15.51,0.01-29.05,0.23-41.12h307.2c0.21,12.07,0.23,25.62,0.23,41.12V223.89z"/>
<path d="M265.02,260.44c-9.25,0-16.76,8.18-16.76,18.28c0,10.09,7.5,18.28,16.76,18.28c9.25,0,16.75-8.18,16.75-18.28
	C281.77,268.62,274.27,260.44,265.02,260.44z"/>
<path d="M265.02,187.33c-9.25,0-16.76,8.18-16.76,18.28c0,10.09,7.5,18.28,16.76,18.28c9.25,0,16.75-8.18,16.75-18.28
	C281.77,195.51,274.27,187.33,265.02,187.33z"/>
<ellipse cx="181.25" cy="278.72" rx="16.75" ry="18.28"/>
<ellipse cx="181.25" cy="205.61" rx="16.75" ry="18.28"/>
<path d="M97.48,260.44c-9.25,0-16.75,8.18-16.75,18.28c0,10.09,7.5,18.28,16.75,18.28c9.25,0,16.76-8.18,16.76-18.28
	C114.24,268.62,106.74,260.44,97.48,260.44z"/>
<path d="M97.48,187.33c-9.25,0-16.75,8.18-16.75,18.28c0,10.09,7.5,18.28,16.75,18.28c9.25,0,16.76-8.18,16.76-18.28
	C114.24,195.51,106.74,187.33,97.48,187.33z"/>
</svg>
