<svg width="11" height="12" viewBox="0 0 11 12" fill="none" xmlns="http://www.w3.org/2000/svg">
<path d="M0.916672 6C0.916672 4.11438 0.916672 3.17157 1.45364 2.58578C1.99062 2 2.85485 2 4.58334 2H6.41667C8.14514 2 9.00942 2 9.54635 2.58578C10.0833 3.17157 10.0833 4.11438 10.0833 6V7C10.0833 8.8856 10.0833 9.82845 9.54635 10.4142C9.00942 11 8.14514 11 6.41667 11H4.58334C2.85485 11 1.99062 11 1.45364 10.4142C0.916672 9.82845 0.916672 8.8856 0.916672 7V6Z" stroke="#A6A6A6" stroke-width="0.75"/>
<path d="M3.20833 2V1.25" stroke="#A6A6A6" stroke-width="0.75" stroke-linecap="round"/>
<path d="M7.79167 2V1.25" stroke="#A6A6A6" stroke-width="0.75" stroke-linecap="round"/>
<path d="M1.14583 4.5H9.85416" stroke="#A6A6A6" stroke-width="0.75" stroke-linecap="round"/>
<path d="M8.24999 8.5C8.24999 8.77615 8.0448 9 7.79166 9C7.53852 9 7.33333 8.77615 7.33333 8.5C7.33333 8.22385 7.53852 8 7.79166 8C8.0448 8 8.24999 8.22385 8.24999 8.5Z" fill="#A6A6A6"/>
<path d="M8.24999 6.5C8.24999 6.77615 8.0448 7 7.79166 7C7.53852 7 7.33333 6.77615 7.33333 6.5C7.33333 6.22385 7.53852 6 7.79166 6C8.0448 6 8.24999 6.22385 8.24999 6.5Z" fill="#A6A6A6"/>
<path d="M5.95834 8.5C5.95834 8.77615 5.75314 9 5.50001 9C5.24687 9 5.04167 8.77615 5.04167 8.5C5.04167 8.22385 5.24687 8 5.50001 8C5.75314 8 5.95834 8.22385 5.95834 8.5Z" fill="#A6A6A6"/>
<path d="M5.95834 6.5C5.95834 6.77615 5.75314 7 5.50001 7C5.24687 7 5.04167 6.77615 5.04167 6.5C5.04167 6.22385 5.24687 6 5.50001 6C5.75314 6 5.95834 6.22385 5.95834 6.5Z" fill="#A6A6A6"/>
<path d="M3.66667 8.5C3.66667 8.77615 3.46146 9 3.20833 9C2.9552 9 2.75 8.77615 2.75 8.5C2.75 8.22385 2.9552 8 3.20833 8C3.46146 8 3.66667 8.22385 3.66667 8.5Z" fill="#A6A6A6"/>
<path d="M3.66667 6.5C3.66667 6.77615 3.46146 7 3.20833 7C2.9552 7 2.75 6.77615 2.75 6.5C2.75 6.22385 2.9552 6 3.20833 6C3.46146 6 3.66667 6.22385 3.66667 6.5Z" fill="#A6A6A6"/>
</svg>
