<?xml version="1.0" encoding="utf-8"?>
<!-- Generator: Adobe Illustrator 27.0.0, SVG Export Plug-In . SVG Version: 6.00 Build 0)  -->
<svg version="1.1" id="Layer_1" xmlns="http://www.w3.org/2000/svg" xmlns:xlink="http://www.w3.org/1999/xlink" x="0px" y="0px"
	 viewBox="0 0 358.29 383.81" style="enable-background:new 0 0 358.29 383.81;" xml:space="preserve">
<path d="M0.07,255.22c0-29.34,0.14-58.67-0.07-88.01c-0.09-13.03,4.57-23.55,14.23-32.21c46.3-41.49,92.49-83.1,138.78-124.6
	c15.46-13.86,36.74-13.9,52.22-0.03c46.18,41.37,92.23,82.89,138.43,124.24c9.95,8.91,14.66,19.65,14.62,33.05
	c-0.18,58.34-0.07,116.67-0.08,175.01c-0.01,25.31-15.84,41.05-41.25,41.07c-19.5,0.02-39.01,0.03-58.51,0
	c-24.66-0.04-40.69-15.9-40.8-40.6c-0.12-27.5-0.02-55-0.03-82.51c0-13.79-4-17.73-17.95-17.73c-14,0-28.01-0.01-42.01,0
	c-12.72,0.01-16.98,4.31-16.98,17.18c-0.01,27.67,0.07,55.34-0.03,83.01c-0.07,19.31-10.08,33.77-26.98,38.83
	c-3.92,1.18-8.18,1.71-12.28,1.74c-20.67,0.17-41.34,0.16-62.01,0.06c-23.01-0.11-39.22-16.41-39.28-39.51
	C0.01,314.56,0.07,284.89,0.07,255.22z M25.3,254.95c0,29.16-0.02,58.32,0.01,87.49c0.01,11.29,4.83,16.06,16.21,16.08
	c19.17,0.04,38.33,0.04,57.5,0c11.44-0.02,16.17-4.73,16.18-16.01c0.01-28-0.01-55.99,0.01-83.99
	c0.02-24.89,16.03-40.81,41.03-40.83c15.33-0.02,30.67-0.02,46,0c24.91,0.03,40.81,16,40.83,41.03c0.02,27.83,0,55.66,0.01,83.49
	c0,11.67,4.62,16.29,16.37,16.31c18.5,0.03,37,0.01,55.5,0.01c13.78,0,18.02-4.19,18.02-17.79c0-56.82-0.09-113.65,0.11-170.47
	c0.03-7.59-2.25-13.18-8.01-18.31c-45.28-40.36-90.33-80.97-135.47-121.49c-7.59-6.81-13.39-6.75-21.07,0.15
	C123.28,71.25,78.09,111.96,32.7,152.45c-5.34,4.76-7.54,9.99-7.49,17.01C25.42,197.96,25.3,226.46,25.3,254.95z"/>
</svg>
