<?xml version="1.0" encoding="UTF-8"?>
<!DOCTYPE svg PUBLIC "-//W3C//DTD SVG 1.1//EN" "http://www.w3.org/Graphics/SVG/1.1/DTD/svg11.dtd">
<svg xmlns="http://www.w3.org/2000/svg" version="1.1" width="512px" height="512px" style="shape-rendering:geometricPrecision; text-rendering:geometricPrecision; image-rendering:optimizeQuality; fill-rule:evenodd; clip-rule:evenodd" xmlns:xlink="http://www.w3.org/1999/xlink">
<g><path style="opacity:0.965" fill="#000000" d="M 73.5,2.5 C 194.834,2.33333 316.167,2.5 437.5,3C 478.333,9.16667 501.833,32.6667 508,73.5C 508.667,194.833 508.667,316.167 508,437.5C 501.833,478.333 478.333,501.833 437.5,508C 316.167,508.667 194.833,508.667 73.5,508C 32.6626,501.829 9.16263,478.329 3,437.5C 2.33333,316.167 2.33333,194.833 3,73.5C 9.34125,32.6591 32.8413,8.99242 73.5,2.5 Z M 73.5,40.5 C 194.834,40.3333 316.167,40.5 437.5,41C 455,45.1667 465.833,56 470,73.5C 470.667,155.833 470.667,238.167 470,320.5C 446.259,289.422 421.759,258.922 396.5,229C 384.518,220.34 371.185,217.34 356.5,220C 344.537,222.734 334.703,228.9 327,238.5C 294.621,280.757 262.121,322.924 229.5,365C 225.782,367.298 221.782,367.965 217.5,367C 204.209,356.711 191.209,346.045 178.5,335C 158.664,320.476 138.33,319.809 117.5,333C 91.6314,360.534 66.1314,388.367 41,416.5C 40.3333,301.833 40.3333,187.167 41,72.5C 45.7935,55.5387 56.6268,44.872 73.5,40.5 Z M 170.5,157.5 C 193.196,159.687 203.029,172.02 200,194.5C 190.43,214.135 175.93,218.968 156.5,209C 143.623,197.611 141.456,184.444 150,169.5C 155.494,163.01 162.327,159.01 170.5,157.5 Z M 364.5,256.5 C 368.505,256.557 372.005,257.89 375,260.5C 406.667,300.833 438.333,341.167 470,381.5C 470.667,400.167 470.667,418.833 470,437.5C 465.833,455 455,465.833 437.5,470C 316.167,470.667 194.833,470.667 73.5,470C 65.7274,468.78 59.0607,465.447 53.5,460C 80.6667,429.5 107.833,399 135,368.5C 139.316,361.655 145.149,359.822 152.5,363C 164.5,373 176.5,383 188.5,393C 206.561,407.116 225.894,409.116 246.5,399C 251.588,395.917 256.088,392.083 260,387.5C 292.333,345.5 324.667,303.5 357,261.5C 359.17,259.177 361.67,257.51 364.5,256.5 Z"/></g>
<g><path style="opacity:0.969" fill="#000000" d="M 162.5,120.5 C 197.101,117.661 221.268,131.994 235,163.5C 244.295,195.95 235.462,222.117 208.5,242C 176.271,258.579 147.438,254.079 122,228.5C 106.562,207.701 103.229,185.035 112,160.5C 122.245,138.746 139.078,125.412 162.5,120.5 Z M 170.5,157.5 C 162.327,159.01 155.494,163.01 150,169.5C 141.456,184.444 143.623,197.611 156.5,209C 175.93,218.968 190.43,214.135 200,194.5C 203.029,172.02 193.196,159.687 170.5,157.5 Z"/></g>
</svg>
