<?xml version="1.0" encoding="utf-8"?>
<!-- Generator: Adobe Illustrator 27.0.0, SVG Export Plug-In . SVG Version: 6.00 Build 0)  -->
<svg version="1.1" id="Layer_1" xmlns="http://www.w3.org/2000/svg" xmlns:xlink="http://www.w3.org/1999/xlink" x="0px" y="0px"
	 viewBox="0 0 383.81 383.81" style="enable-background:new 0 0 383.81 383.81;" xml:space="preserve">
<path d="M0,224.14c3.19-5.14,5.39-5.81,11.11-3.03c23.78,11.56,47.53,23.18,71.29,34.77c0.22,0.11,0.44,0.24,0.66,0.36
	c6.56,3.46,6.71,7.51,0.35,11.57c-5.89,3.76-11.85,7.41-17.77,11.12c-3.15,1.97-6.28,3.97-9.56,6.05
	c15.44,22.83,34.85,40.86,58.75,53.85c90.48,49.17,201.89,7.85,238.65-88.42c1.02-2.68,1.81-5.44,2.82-8.13
	c2.49-6.68,8.94-9.9,15.31-7.69c6.48,2.24,9.49,8.76,7.23,15.82c-7.27,22.72-18.36,43.42-33.55,61.79
	c-31.24,37.8-71.16,60.79-119.47,69.16c-6.5,1.12-13.1,1.65-19.65,2.45c-7.25,0-14.49,0-21.74,0c-2.45-0.3-4.89-0.63-7.34-0.9
	c-50.66-5.72-92.95-27.57-126.59-65.91c-5.32-6.07-10.04-12.66-15.15-19.14c-8.39,5.22-16.83,10.52-25.33,15.72
	c-4.89,2.99-6.74,2.59-10-1.73C0,282.61,0,253.38,0,224.14z"/>
<path d="M383.81,158.17c-2.88,5.25-5.41,6.12-10.94,3.43c-24-11.68-48.01-23.35-71.91-35.23c-2.08-1.03-4.75-3.62-4.71-5.43
	c0.04-2.11,2.35-4.79,4.39-6.15c8.6-5.73,17.47-11.06,26.97-16.99c-5.6-6.8-10.6-13.64-16.37-19.75
	c-30.13-31.93-67.05-50.06-110.94-53.48C124.56,18.68,52.99,66.13,28.57,138.34c-0.36,1.06-0.65,2.15-1.06,3.2
	c-2.56,6.68-8.93,9.86-15.33,7.67c-6.31-2.16-9.77-8.83-7.24-15.47c3.89-10.24,7.5-20.73,12.7-30.31
	C46.31,50.57,90.3,17.59,148.9,4.28c8.24-1.87,16.77-2.45,25.16-3.65c0.96-0.14,1.91-0.42,2.86-0.64c7.5,0,14.99,0,22.49,0
	c1.08,0.22,2.14,0.52,3.23,0.65c6.8,0.87,13.7,1.27,20.41,2.61c51.28,10.25,92.19,36.65,122.6,79.25c0.62,0.87,1.35,1.68,2.17,2.68
	c8.88-5.53,17.52-10.98,26.24-16.31c4.72-2.88,7.04-2.24,9.77,2.33C383.81,100.2,383.81,129.19,383.81,158.17z"/>
<path d="M203.9,274.29c0,6.34,0.03,12.45-0.01,18.56c-0.05,7.61-5.09,13.01-12.04,12.98c-6.93-0.03-11.89-5.45-11.93-13.09
	c-0.03-6.11-0.01-12.22-0.01-18.21c-4.68-1.62-9.33-2.73-13.53-4.77c-16.85-8.18-25.2-22.09-26.18-40.54
	c-0.28-5.2,2.98-9.49,7.72-11.27c4.56-1.71,9.91-0.65,12.93,3.24c1.6,2.06,2.84,4.82,3.13,7.38c1.37,12.13,6.8,18.82,18.4,21.43
	c8.46,1.9,16.88,1.64,25.02-1.68c6.72-2.74,11.23-7.41,12.09-14.88c0.98-8.52-0.01-16.63-8.26-21.28
	c-5.92-3.34-12.32-5.99-18.75-8.25c-10.27-3.62-20.49-7.23-29.21-13.99c-14.24-11.04-19.1-26.16-16.74-43.25
	c2.39-17.33,13.38-28.58,29.41-34.82c3.09-1.2,4.26-2.45,4.04-5.77c-0.32-4.85-0.1-9.74-0.08-14.61
	c0.03-8.02,4.81-13.44,11.89-13.49c7.21-0.06,12.07,5.43,12.09,13.68c0.01,5.72,0,11.44,0,17.14c3.22,0.87,6.15,1.47,8.95,2.44
	c16.98,5.92,28.63,24.03,27.1,41.97c-0.49,5.7-5.29,10.39-11.1,10.83c-5.5,0.42-10.94-3.43-12.25-8.98
	c-0.71-3.02-0.72-6.2-1.42-9.22c-1.62-7-6.05-11.37-13.14-12.74c-6.49-1.25-12.95-1.11-19.08,1.71
	c-6.71,3.09-11.81,7.83-12.74,15.46c-1.07,8.69,0.8,16.9,8.97,21.47c7.01,3.92,14.74,6.55,22.17,9.71c6.3,2.68,12.9,4.8,18.87,8.08
	c19.23,10.57,25.36,25.64,22.97,46.68c-2.16,19.01-15.92,32.81-35.93,37.3C206.2,273.75,205.13,274,203.9,274.29z"/>
</svg>
