<?xml version="1.0" encoding="UTF-8"?>
<!DOCTYPE svg PUBLIC "-//W3C//DTD SVG 1.1//EN" "http://www.w3.org/Graphics/SVG/1.1/DTD/svg11.dtd">
<svg xmlns="http://www.w3.org/2000/svg" version="1.1" width="512px" height="512px" style="shape-rendering:geometricPrecision; text-rendering:geometricPrecision; image-rendering:optimizeQuality; fill-rule:evenodd; clip-rule:evenodd" xmlns:xlink="http://www.w3.org/1999/xlink">
<g><path style="opacity:0.995" fill="#000000" d="M 85.5,-0.5 C 176.167,-0.5 266.833,-0.5 357.5,-0.5C 392.41,32.9089 426.91,66.9089 461,101.5C 461.667,102.833 462.333,104.167 463,105.5C 463.667,228.167 463.667,350.833 463,473.5C 457.651,493.348 445.151,506.015 425.5,511.5C 312.167,511.5 198.833,511.5 85.5,511.5C 65.8488,506.015 53.3488,493.348 48,473.5C 47.3333,328.167 47.3333,182.833 48,37.5C 53.3488,17.6518 65.8488,4.98517 85.5,-0.5 Z M 95.5,31.5 C 175.5,31.5 255.5,31.5 335.5,31.5C 335.333,55.5023 335.5,79.5023 336,103.5C 339.167,116 347,123.833 359.5,127C 383.498,127.5 407.498,127.667 431.5,127.5C 431.667,239.5 431.5,351.5 431,463.5C 429.833,472.667 424.667,477.833 415.5,479C 307.132,479.989 198.798,479.656 90.5,478C 83.9469,475.399 80.4469,470.566 80,463.5C 79.3333,324.833 79.3333,186.167 80,47.5C 81.3459,38.3224 86.5125,32.9891 95.5,31.5 Z M 143.5,207.5 C 218.167,207.5 292.833,207.5 367.5,207.5C 367.5,218.167 367.5,228.833 367.5,239.5C 292.833,239.5 218.167,239.5 143.5,239.5C 143.5,228.833 143.5,218.167 143.5,207.5 Z"/></g>
<g><path style="opacity:0.997" fill="#000000" d="M 121.5,175.5 C 210.834,175.333 300.167,175.5 389.5,176C 394,177.833 397.167,181 399,185.5C 399.667,210.833 399.667,236.167 399,261.5C 397.167,266 394,269.167 389.5,271C 300.167,271.667 210.833,271.667 121.5,271C 117,269.167 113.833,266 112,261.5C 111.333,236.167 111.333,210.833 112,185.5C 114.022,180.98 117.189,177.647 121.5,175.5 Z M 143.5,207.5 C 143.5,218.167 143.5,228.833 143.5,239.5C 218.167,239.5 292.833,239.5 367.5,239.5C 367.5,228.833 367.5,218.167 367.5,207.5C 292.833,207.5 218.167,207.5 143.5,207.5 Z"/></g>
<g><path style="opacity:1" fill="#000000" d="M 111.5,319.5 C 207.5,319.5 303.5,319.5 399.5,319.5C 399.5,330.167 399.5,340.833 399.5,351.5C 303.5,351.5 207.5,351.5 111.5,351.5C 111.5,340.833 111.5,330.167 111.5,319.5 Z"/></g>
<g><path style="opacity:1" fill="#000000" d="M 111.5,399.5 C 207.5,399.5 303.5,399.5 399.5,399.5C 399.5,410.167 399.5,420.833 399.5,431.5C 303.5,431.5 207.5,431.5 111.5,431.5C 111.5,420.833 111.5,410.167 111.5,399.5 Z"/></g>
</svg>
