<?xml version="1.0" encoding="utf-8"?>
<!-- Generator: Adobe Illustrator 27.0.0, SVG Export Plug-In . SVG Version: 6.00 Build 0)  -->
<svg version="1.1" id="Layer_1" xmlns="http://www.w3.org/2000/svg" xmlns:xlink="http://www.w3.org/1999/xlink" x="0px" y="0px"
	 viewBox="0 0 384.02 383.81" style="enable-background:new 0 0 384.02 383.81;" xml:space="preserve">
<path d="M293.21,270.73c14.15,14.12,28.06,27.98,41.96,41.87c14.61,14.6,29.22,29.2,43.81,43.83c4.32,4.33,6.13,9.48,4.38,15.5
	c-1.77,6.1-5.87,10.02-12.04,11.46c-6.31,1.48-11.3-1.11-15.69-5.51c-26.95-27-53.96-53.94-80.9-80.95
	c-1.28-1.28-2.06-3.06-2.99-4.48c-76.85,62.57-179.09,45.01-233.71-21.51C-16.71,204.26-11.8,107.77,49.19,48.01
	c61.64-60.39,158.43-64.13,223.2-9.37C338.63,94.66,353.97,195.94,293.21,270.73z M299.49,165.81
	c0.24-73.32-59.84-133.67-133.32-133.91C92.73,31.66,32.36,91.55,32.01,164.98c-0.35,73.95,59.84,134.41,133.8,134.39
	C239.28,299.34,299.24,239.43,299.49,165.81z"/>
</svg>
