<?xml version="1.0" encoding="utf-8"?>
<!-- Generator: Adobe Illustrator 27.0.0, SVG Export Plug-In . SVG Version: 6.00 Build 0)  -->
<svg version="1.1" id="Layer_1" xmlns="http://www.w3.org/2000/svg" xmlns:xlink="http://www.w3.org/1999/xlink" x="0px" y="0px"
	 viewBox="0 0 383.81 275.75" style="enable-background:new 0 0 383.81 275.75;" xml:space="preserve">
<path d="M342.37,275.75c-95.4,0-190.8,0-286.2,0c-0.42-0.08-0.83-0.2-1.26-0.22c-7.45-0.38-14.67-1.88-21.57-4.75
	c-11.87-4.94-21-12.91-26.86-24.45c-4.26-8.39-5.84-17.35-5.87-26.69C0.42,157.11,0.17,94.58,0,32.04c-0.01-3.14,0.32-6.36,1-9.42
	c1.78-8,6.27-14.14,13.48-18.2C20.2,1.19,26.44,0.09,32.9,0.03c7.13-0.06,14.27-0.01,21.4-0.01c85.6,0,171.2,0,256.8-0.01
	c5.02,0,9.91,0.72,14.63,2.44c7.29,2.65,13.46,6.96,18.57,12.78c7.05,8.02,11.25,17.25,11.67,28.03c0.13,3.28,1.65,4.67,4.96,4.75
	c3.95,0.09,7.92,0.13,11.86,0.44c5.55,0.44,8.48,2.89,9.53,8.36c0.66,3.39,0.85,6.92,0.86,10.39c0.25,49.18,0.43,98.35,0.62,147.53
	c0.03,7.06-0.19,14.1-0.99,21.12c-0.84,7.37-2.72,14.37-6.9,20.61c-6.51,9.73-15.42,15.96-26.93,18.34
	C346.8,275.24,344.58,275.44,342.37,275.75z M241.63,64.12c-39.78,0-79.56,0-119.33,0c-0.47,0-0.94-0.01-1.41,0.02
	c-1.99,0.13-3.56,1.52-3.87,3.48c-0.11,0.69-0.12,1.4-0.12,2.11c-0.01,48.08,0,96.15-0.02,144.23c0,3.33-0.07,6.66-0.32,9.98
	c-0.54,7.3-2.26,14.3-5.84,20.74c-1.67,3-3.59,5.87-5.43,8.78c-0.68,1.08-1.23,2.19-1.03,3.51c0.36,2.37,2.06,3.6,4.97,3.59
	c33.66-0.14,67.33-0.29,100.99-0.44c40.21-0.18,80.42-0.36,120.63-0.56c5.43-0.03,10.79-0.67,15.98-2.33
	c5.29-1.7,9.93-4.41,13.46-8.8c4.04-5.02,5.79-10.87,6.04-17.19c0.19-4.7,0.28-9.4,0.27-14.1c-0.06-49.25-0.15-98.5-0.23-147.75
	c-0.01-3.75-1.51-5.25-5.28-5.25C321.26,64.12,281.45,64.12,241.63,64.12z M192.24,16.13c-40.53,0-81.05,0-121.58,0
	c-0.55,0-1.1-0.01-1.65,0.02c-2.81,0.17-4.64,2.85-3.77,5.52c1.17,3.57,1.71,7.23,1.71,10.97c0,61.01,0,122.02,0,183.03
	c0,0.39-0.01,0.78,0,1.18c0.04,2.37-1.12,3.92-3.27,4.79c-2.18,0.87-4.41,0.91-6.7,0.53c-3.23-0.54-5.23-2.32-5.82-5.57
	c-0.17-0.96-0.37-1.93-0.38-2.9c-0.04-3.8-0.01-7.59-0.01-11.39c0.09-45.57,0.26-91.14,0.23-136.71
	c-0.01-11.83-0.67-23.65-0.92-35.48c-0.1-4.92-2.25-8.55-6.48-10.79c-6.96-3.67-13.93-3.22-20.51,0.98
	c-3.44,2.19-5.92,5.26-6.07,9.65c-0.07,1.96-0.08,3.91-0.09,5.87c-0.11,34.68-0.32,69.36-0.27,104.03
	c0.04,25.58,0.4,51.17,0.7,76.75c0.06,5.4,0.44,10.76,2.28,15.96c2.24,6.33,5.49,11.96,10.46,16.48
	c6.74,6.13,14.82,9.21,23.81,10.01c8.3,0.74,16.24-0.7,23.75-4.3c5.51-2.64,10.3-6.23,13.9-11.28c3.97-5.57,6.11-11.86,7.43-18.48
	c1.58-7.95,1.87-16.02,1.85-24.09c-0.06-44.87-0.18-89.73-0.25-134.6c-0.01-4.5-0.18-9.01,0.74-13.47c0.46-2.23,1.67-3.66,3.92-4.14
	c0.73-0.15,1.47-0.3,2.2-0.32c4.42-0.14,8.85-0.36,13.27-0.36c71.53-0.02,143.06-0.02,214.58-0.02c0.47,0,0.94,0.01,1.41-0.02
	c2.44-0.13,4.14-1.82,4.11-4.24c-0.09-7.83-2.94-14.52-8.59-19.92c-5.56-5.32-12.26-7.73-19.95-7.72
	C272.27,16.15,232.26,16.13,192.24,16.13z"/>
<path d="M241.85,171.44c30.65,0,61.29,0,91.94,0c2.35,0,2.6,0.26,2.61,2.65c0,1.61,0.02,3.21-0.01,4.82
	c-0.03,1.3-0.51,1.74-1.81,1.79c-0.27,0.01-0.55,0-0.82,0c-61.37,0-122.74,0-184.11,0c-0.31,0-0.63,0-0.94,0
	c-1.03-0.03-1.64-0.55-1.65-1.59c-0.03-2.04-0.03-4.07,0-6.11c0.02-0.98,0.59-1.49,1.57-1.55c0.39-0.02,0.78-0.01,1.18-0.01
	C180.48,171.44,211.16,171.44,241.85,171.44z"/>
<path d="M241.73,114.68c30.69,0,61.37,0,92.06,0c2.4,0,2.61,0.21,2.61,2.6c0,1.61,0.02,3.21-0.01,4.82c-0.03,1.31-0.5,1.73-1.8,1.76
	c-0.27,0.01-0.55,0-0.82,0c-61.37,0-122.74,0-184.11,0c-2.37,0-2.61-0.24-2.61-2.61c0-1.41,0-2.82,0-4.23
	c0-2.02,0.31-2.34,2.28-2.34c7.09,0,14.19,0,21.28,0C194.31,114.68,218.02,114.68,241.73,114.68z"/>
<path d="M241.76,152.29c-30.73,0-61.45,0-92.18,0c-2.27,0-2.55-0.28-2.55-2.58c0-1.49-0.01-2.98,0-4.47
	c0.01-1.81,0.37-2.17,2.22-2.18c0.24,0,0.47,0,0.71,0c61.18,0,122.35,0,183.53,0c0.24,0,0.47,0,0.71,0c1.84,0.01,2.19,0.36,2.2,2.2
	c0.01,1.65,0.01,3.29,0,4.94c-0.01,1.67-0.43,2.08-2.1,2.08c-7.52,0-15.05,0-22.57,0C288.4,152.29,265.08,152.29,241.76,152.29z"/>
<path d="M192.33,199.85c14.27,0,28.53,0,42.8,0c2.08,0,2.36,0.28,2.36,2.37c0,1.72-0.02,3.45,0.01,5.17
	c0.02,1.14-0.55,1.65-1.64,1.67c-0.35,0.01-0.71,0.01-1.06,0.01c-28.34,0-56.67,0-85.01,0c-0.39,0-0.78,0-1.18-0.01
	c-1-0.02-1.54-0.56-1.56-1.53c-0.03-2.04-0.04-4.08,0-6.11c0.02-1.03,0.61-1.57,1.66-1.57c0.31,0,0.63,0,0.94,0
	C163.87,199.85,178.1,199.85,192.33,199.85z"/>
</svg>
