<?xml version="1.0" encoding="UTF-8"?>
<!DOCTYPE svg PUBLIC "-//W3C//DTD SVG 1.1//EN" "http://www.w3.org/Graphics/SVG/1.1/DTD/svg11.dtd">
<svg xmlns="http://www.w3.org/2000/svg" version="1.1" width="512px" height="512px" style="shape-rendering:geometricPrecision; text-rendering:geometricPrecision; image-rendering:optimizeQuality; fill-rule:evenodd; clip-rule:evenodd" xmlns:xlink="http://www.w3.org/1999/xlink">
<g><path style="opacity:0.993" fill="#000000" d="M 511.5,121.5 C 511.5,210.833 511.5,300.167 511.5,389.5C 509.353,393.811 506.02,396.978 501.5,399C 481.5,399.667 461.5,399.667 441.5,399C 429.897,389.399 418.897,379.066 408.5,368C 400.173,367.5 391.84,367.334 383.5,367.5C 388.446,394.574 379.112,414.741 355.5,428C 352.226,429.202 348.893,430.202 345.5,431C 242.833,431.667 140.167,431.667 37.5,431C 17.6518,425.651 4.98517,413.151 -0.5,393.5C -0.5,301.5 -0.5,209.5 -0.5,117.5C 4.98517,97.8488 17.6518,85.3488 37.5,80C 140.167,79.3333 242.833,79.3333 345.5,80C 365.333,85.1667 377.833,97.6667 383,117.5C 383.5,126.16 383.666,134.827 383.5,143.5C 391.84,143.666 400.173,143.5 408.5,143C 418.897,131.934 429.897,121.601 441.5,112C 461.5,111.333 481.5,111.333 501.5,112C 506.02,114.022 509.353,117.189 511.5,121.5 Z M 47.5,111.5 C 143.501,111.333 239.501,111.5 335.5,112C 344.667,113.167 349.833,118.333 351,127.5C 351.5,180.832 351.667,234.166 351.5,287.5C 362.167,287.5 372.833,287.5 383.5,287.5C 383.5,250.167 383.5,212.833 383.5,175.5C 396.171,175.667 408.838,175.5 421.5,175C 433.103,165.399 444.103,155.066 454.5,144C 462.827,143.5 471.16,143.334 479.5,143.5C 479.5,218.167 479.5,292.833 479.5,367.5C 471.16,367.666 462.827,367.5 454.5,367C 444.103,355.934 433.103,345.601 421.5,336C 401.5,335.333 381.5,335.333 361.5,336C 357,337.833 353.833,341 352,345.5C 351.911,359.879 351.245,374.213 350,388.5C 347.399,395.053 342.566,398.553 335.5,399C 239.5,399.667 143.5,399.667 47.5,399C 38.3333,397.833 33.1667,392.667 32,383.5C 31.3333,298.167 31.3333,212.833 32,127.5C 33.3459,118.322 38.5125,112.989 47.5,111.5 Z"/></g>
</svg>
