<?xml version="1.0" encoding="UTF-8"?>
<!DOCTYPE svg PUBLIC "-//W3C//DTD SVG 1.1//EN" "http://www.w3.org/Graphics/SVG/1.1/DTD/svg11.dtd">
<svg xmlns="http://www.w3.org/2000/svg" version="1.1" width="512px" height="512px" style="shape-rendering:geometricPrecision; text-rendering:geometricPrecision; image-rendering:optimizeQuality; fill-rule:evenodd; clip-rule:evenodd" xmlns:xlink="http://www.w3.org/1999/xlink">
<g><path style="opacity:0.969" fill="#000000" d="M 511.5,195.5 C 511.5,235.167 511.5,274.833 511.5,314.5C 510.284,333.672 509.117,353.005 508,372.5C 503.96,405.849 486.46,428.682 455.5,441C 450.594,442.476 445.594,443.476 440.5,444C 317.167,450 193.834,450 70.5,444C 41.3012,439.472 20.8012,423.639 9,396.5C 5.76825,388.805 3.76825,380.805 3,372.5C 1.86481,353.34 0.698148,334.34 -0.5,315.5C -0.5,275.5 -0.5,235.5 -0.5,195.5C 0.78119,176.665 1.94786,157.665 3,138.5C 6.56022,106.859 22.7269,84.3588 51.5,71C 56.6767,69.0392 62.01,67.7058 67.5,67C 129.964,64.0925 192.464,62.9259 255,63.5C 317.869,62.929 380.702,64.0957 443.5,67C 472.391,72.5529 492.224,89.0529 503,116.5C 505.454,123.314 507.12,130.314 508,137.5C 509.117,156.995 510.284,176.328 511.5,195.5 Z M 264.5,95.5 C 323.19,95.8538 381.857,97.3538 440.5,100C 461.027,106.203 472.527,120.037 475,141.5C 480.529,217.402 480.529,293.402 475,369.5C 472.263,389.564 461.429,403.064 442.5,410C 411.21,412.101 379.876,413.434 348.5,414C 256.803,415.353 165.137,414.353 73.5,411C 53.8194,406.987 41.6528,395.154 37,375.5C 29.8802,295.513 29.8802,215.513 37,135.5C 41.4521,116.716 52.9521,104.882 71.5,100C 135.968,97.3374 200.301,95.8374 264.5,95.5 Z"/></g>
<g><path style="opacity:0.984" fill="#000000" d="M 206.5,156.5 C 255.181,188.839 303.514,221.672 351.5,255C 303.703,288.07 255.703,320.903 207.5,353.5C 206.5,287.837 206.167,222.17 206.5,156.5 Z"/></g>
</svg>
